<svg xmlns="http://www.w3.org/2000/svg" version="1.1" xmlns:xlink="http://www.w3.org/1999/xlink" xmlns:svgjs="http://svgjs.dev/svgjs" width="1000" height="623" viewBox="0 0 1000 623"><g transform="matrix(1,0,0,1,-0.6060606060606233,0.2522267206477409)"><svg viewBox="0 0 396 247" data-background-color="#ffffff" preserveAspectRatio="xMidYMid meet" height="623" width="1000" xmlns="http://www.w3.org/2000/svg" xmlns:xlink="http://www.w3.org/1999/xlink"><g id="tight-bounds" transform="matrix(1,0,0,1,0.2400000000000091,-0.09999999999999432)"><svg viewBox="0 0 395.52 247.2" height="247.2" width="395.52"><g><svg></svg></g><g><svg viewBox="0 0 395.52 247.2" height="247.2" width="395.52"><g transform="matrix(1,0,0,1,75.54432,94.87116536699423)"><svg viewBox="0 0 244.43135999999998 57.45766926601151" height="57.45766926601151" width="244.43135999999998"><g><svg viewBox="0 0 244.43135999999998 57.45766926601151" height="57.45766926601151" width="244.43135999999998"><g><svg viewBox="0 0 348.51037676423334 81.92317861297495" height="57.45766926601151" width="244.43135999999998"><g transform="matrix(1,0,0,1,0,11.322233802516799)"><svg viewBox="0 0 244.43136 59.278711007941354" height="59.278711007941354" width="244.43136"><g id="textblocktransform"><svg viewBox="0 0 244.43136 59.278711007941354" height="59.278711007941354" width="244.43136" id="textblock"><g><svg viewBox="0 0 244.43136 59.278711007941354" height="59.278711007941354" width="244.43136"><g transform="matrix(1,0,0,1,0,0)"><svg width="244.43136" viewBox="2.0799999237060547 -38.15999984741211 159.84999084472656 38.77000045776367" height="59.278711007941354" data-palette-color="#e56d90"><path d="M6.86-3.86Q4.64-5.98 3.36-8.96 2.08-11.94 2.08-15.49 2.08-19.04 3.27-22.22 4.47-25.39 6.69-27.81 8.91-30.22 12.06-31.65 15.21-33.08 19.12-33.08L19.12-33.08Q25.85-33.08 30.47-28.83L30.47-28.83Q35.4-24.29 35.4-16.58L35.4-16.58Q35.4-9.11 30.32-4.15L30.32-4.15Q27.2-1.1 22.88 0.05L22.88 0.05Q20.75 0.61 17.91 0.61 15.06 0.61 12.07-0.56 9.08-1.73 6.86-3.86ZM8.86-15.82L8.86-15.82Q8.86-13.55 9.62-11.65 10.38-9.74 11.72-8.37L11.72-8.37Q14.58-5.49 19.07-5.49L19.07-5.49Q23.34-5.49 25.93-8.25L25.93-8.25Q28.56-11.11 28.56-16.04L28.56-16.04Q28.56-20.68 26.05-23.78L26.05-23.78Q23.34-27.1 18.63-27.1L18.63-27.1Q14.06-27.1 11.38-23.73L11.38-23.73Q8.86-20.58 8.86-15.82ZM47.65-17.16L47.65-7.06Q47.65-1.56 47.85 0L47.85 0 41.48 0 41.48-25.51 47.65-25.51 47.65-23.32Q51-26 54.51-26L54.51-26Q58.66-26 60.54-22.41L60.54-22.41Q62.42-24.34 63.67-24.95L63.67-24.95Q65.74-26 67.83-26 69.92-26 71.38-25.29 72.85-24.58 73.8-23.29L73.8-23.29Q75.73-20.68 75.73-16.11L75.73-16.11 75.73-6.4Q75.73-2.27 75.85-1.44 75.97-0.61 76.18-0.37 76.39-0.12 76.54 0.07L76.54 0.07 76.49 0.17Q74.53 0 73.61 0L73.61 0 71.77 0Q70.87 0 69.55 0.07L69.55 0.07 69.55-13.13Q69.55-18.85 67.8-19.92L67.8-19.92Q67.21-20.26 66.42-20.26 65.62-20.26 65.01-20.08 64.4-19.9 63.86-19.48L63.86-19.48Q62.96-18.82 61.81-16.89L61.81-16.89Q61.84-16.7 61.84-16.5 61.84-16.31 61.84-10.06 61.84-3.81 62.13 0L62.13 0Q60.06 0 58.6 0 57.15 0 55.83 0.07L55.83 0.07 55.83-13.16Q55.83-17.14 55.36-18.33 54.88-19.53 54.34-19.9 53.81-20.26 53.02-20.26L53.02-20.26Q49.8-20.26 47.65-17.16L47.65-17.16ZM89.23-17.07L89.23-3.13Q89.23-0.98 89.42 0L89.42 0 83.3 0 83.3-25.51 89.23-25.51 89.23-23.34Q92.45-26 96.11-26L96.11-26Q100.12-26 102.51-23.28 104.9-20.56 104.9-16.11L104.9-16.11 104.9-6.4Q104.9-2.27 105.02-1.44 105.15-0.61 105.35-0.37 105.56-0.12 105.71 0.07L105.71 0.07 105.66 0.17Q103.68 0 102.78 0L102.78 0 101.07 0Q100.29 0 98.97 0.07L98.97 0.07 98.97-13.23Q98.97-20.39 94.62-20.39L94.62-20.39Q91.4-20.39 89.23-17.07L89.23-17.07ZM116.74-28.83L111.25-32.79Q113.2-35.84 115.32-38.16L115.32-38.16 120.57-34.03Q119.52-32.74 118.62-31.49L118.62-31.49Q118.62-31.49 116.74-28.83L116.74-28.83ZM117.67-25.51L117.67-2.73Q117.67-0.63 117.77 0L117.77 0 111.56 0 111.56-25.51 117.67-25.51ZM129.82-7.03L127.53 0.2Q125.43 0 122.62 0L122.62 0 120.69 0 131.31-29.76Q132.02-31.76 132.02-32.09 132.02-32.42 132-32.5L132-32.5 132.02-32.54Q133.61-32.47 135.39-32.47L135.39-32.47Q136.86-32.47 138.91-32.52L138.91-32.52 138.93-32.47Q138.88-32.37 138.88-32.2L138.88-32.2Q138.88-31.74 139.61-29.74L139.61-29.74 150.45 0.07Q149.97 0.05 149.31 0.05L149.31 0.05Q149.31 0.05 148.04 0L148.04 0Q147.43 0 146.94 0L146.94 0 143.15 0 140.86-7.03 129.82-7.03ZM131.68-12.89L138.95-12.89 135.27-24.24 131.68-12.89ZM155.14 0L155.14-32.57Q157.58-32.47 158.09-32.47L158.09-32.47 159.85-32.47Q161.14-32.47 161.93-32.67L161.93-32.67 161.9 0 155.14 0Z" opacity="1" transform="matrix(1,0,0,1,0,0)" fill="#e56d90" class="wordmark-text-0" data-fill-palette-color="primary" id="text-0"></path></svg></g></svg></g></svg></g></svg></g><g transform="matrix(1,0,0,1,258.4256409799108,0)"><svg viewBox="0 0 90.08473578432258 81.92317861297495" height="81.92317861297495" width="90.08473578432258"><g><svg xmlns="http://www.w3.org/2000/svg" xmlns:xlink="http://www.w3.org/1999/xlink" version="1.1" x="0" y="0" viewBox="12.877257347106934 35.09613800048828 487.0279541015625 442.90386962890625" style="enable-background:new 0 0 512 512;" xml:space="preserve" height="81.92317861297495" width="90.08473578432258" class="icon-icon-0" data-fill-palette-color="accent" id="icon-0"><g fill="#e56d90" data-fill-palette-color="accent"><g fill="#e56d90" data-fill-palette-color="accent"><g fill="#e56d90" data-fill-palette-color="accent"><path d="M359.5 477.8H189.4c-8.9 0-16.1-7.2-16.1-16.1V418c0-13.8-1-27.8-2.9-41.5-0.3-2.2 1.2-4.2 3.4-4.5 2.2-0.3 4.2 1.2 4.5 3.4 2 14.1 3 28.5 3 42.6v43.8c0 4.5 3.6 8.1 8.1 8.1h170.1c4.5 0 8.1-3.6 8.1-8.1v-42.6c0-2.2 1.8-4 4-4h47.5c16.8 0 30.5-13.7 30.5-30.5V324c0-2.2 1.7-4 3.9-4l27.8-0.5c3.8-0.1 7.2-2.1 9.1-5.3 1.9-3.3 2-7.2 0.3-10.5l-30.4-57.3c-7-13.4-10.7-28.3-10.7-43.3 0-43-16.8-83.4-47.4-113.7C371.7 59.1 331.1 42.6 288.1 43c-31.3 0.2-61.4 9.4-87.2 26.6-1.8 1.2-4.3 0.7-5.5-1.1-1.2-1.8-0.7-4.3 1.1-5.5 27-18 58.7-27.7 91.5-27.9 45.2-0.3 87.7 16.9 119.8 48.7 32.1 31.8 49.7 74.2 49.7 119.4 0 13.7 3.4 27.3 9.8 39.5l30.4 57.3c3.1 5.8 2.9 12.7-0.4 18.4-3.4 5.7-9.3 9.2-15.9 9.3l-23.9 0.4v56.6c0 21.2-17.3 38.5-38.5 38.5h-43.5v38.6C375.6 470.6 368.4 477.8 359.5 477.8z" fill="#e56d90" data-fill-palette-color="accent"></path></g><g fill="#e56d90" data-fill-palette-color="accent"><path d="M294.1 163c-0.8 0-1.6-0.2-2.3-0.8-1.8-1.3-2.2-3.8-0.9-5.6l13-18-2.1-98.6c0-2.2 1.7-4 3.9-4.1 0 0 0.1 0 0.1 0 2.2 0 4 1.7 4 3.9l2.2 100c0 0.9-0.2 1.7-0.8 2.4l-13.8 19.1C296.5 162.5 295.3 163 294.1 163z" fill="#e56d90" data-fill-palette-color="accent"></path></g><g fill="#e56d90" data-fill-palette-color="accent"><path d="M375.5 175.6c-1.3 0-2.5-0.6-3.3-1.7L360 156.1c-0.5-0.7-0.7-1.5-0.7-2.3l1.1-96.8c0-2.2 1.8-4 4-4 0 0 0 0 0 0 2.2 0 4 1.8 4 4l-1 95.5 11.4 16.8c1.2 1.8 0.8 4.3-1.1 5.6C377 175.4 376.2 175.6 375.5 175.6z" fill="#e56d90" data-fill-palette-color="accent"></path></g><g fill="#e56d90" data-fill-palette-color="accent"><path d="M305.7 478c-2.2 0-3.9-1.7-4-3.9l-2.2-83.3c-0.1-2.2 1.7-4 3.9-4.1 2.2-0.1 4 1.7 4.1 3.9l2.2 83.3c0.1 2.2-1.7 4-3.9 4.1C305.7 478 305.7 478 305.7 478z" fill="#e56d90" data-fill-palette-color="accent"></path></g><g fill="#e56d90" data-fill-palette-color="accent"><path d="M270.6 476.5c-2.2 0-4-1.7-4-3.9l-0.7-41.7L252.7 419c-1.6-1.5-1.8-4-0.3-5.6 1.5-1.6 4-1.8 5.6-0.3l14.5 13c0.8 0.7 1.3 1.8 1.3 2.9l0.7 43.4C274.6 474.7 272.9 476.5 270.6 476.5 270.6 476.5 270.6 476.5 270.6 476.5z" fill="#e56d90" data-fill-palette-color="accent"></path></g><g fill="#e56d90" data-fill-palette-color="accent"><path d="M147.3 347.2h-40.1c-2.2 0-4-1.8-4-4v-22c-17.1-4.4-32.6-13.3-45.1-26.1l-19.1 11.1c-0.9 0.5-2 0.7-3 0.4-1-0.3-1.9-0.9-2.4-1.9l-20-34.7c-1.1-1.9-0.4-4.3 1.5-5.5L34 253.4c-2.4-8.4-3.6-17.1-3.6-26 0-8.9 1.2-17.6 3.6-26.1l-19.1-11c-1.9-1.1-2.6-3.5-1.5-5.5l20-34.7c1.1-1.9 3.5-2.6 5.5-1.5l19.1 11c12.5-12.7 27.9-21.7 45.1-26.1v-22.1c0-2.2 1.8-4 4-4h40.1c2.2 0 4 1.8 4 4v22.1c17.1 4.4 32.6 13.3 45.1 26.1l19.1-11c1.9-1.1 4.4-0.4 5.5 1.5l20 34.7c1.1 1.9 0.4 4.4-1.5 5.5l-19.1 11c2.4 8.5 3.6 17.2 3.6 26.1 0 8.9-1.2 17.6-3.6 26l19.1 11.1c1.9 1.1 2.6 3.5 1.5 5.5l-20 34.7c-0.5 0.9-1.4 1.6-2.4 1.9-1 0.3-2.1 0.1-3-0.4l-19.1-11.1c-12.5 12.8-28 21.7-45.1 26.1v22C151.3 345.4 149.5 347.2 147.3 347.2zM111.2 339.2h32.1V318c0-1.9 1.3-3.5 3.1-3.9 17.8-3.9 33.8-13.2 46.3-26.8 1.3-1.4 3.3-1.7 4.9-0.8l18.4 10.7 16-27.8-18.4-10.7c-1.6-0.9-2.4-2.9-1.8-4.7 2.7-8.6 4.1-17.5 4.1-26.7 0-9.1-1.4-18.2-4.1-26.8-0.6-1.8 0.2-3.7 1.8-4.7l18.3-10.6-16-27.8-18.4 10.6c-1.6 0.9-3.7 0.6-4.9-0.8-12.4-13.6-28.4-22.8-46.3-26.7-1.8-0.4-3.1-2-3.1-3.9v-21.2h-32.1v21.2c0 1.9-1.3 3.5-3.1 3.9-17.8 3.9-33.8 13.2-46.3 26.7-1.3 1.4-3.3 1.7-4.9 0.8l-18.4-10.6-16 27.8 18.3 10.6c1.6 0.9 2.4 2.9 1.8 4.7-2.7 8.6-4.1 17.6-4.1 26.8 0 9.2 1.4 18.1 4.1 26.7 0.6 1.8-0.2 3.7-1.8 4.7l-18.4 10.7 16 27.8 18.4-10.7c1.6-0.9 3.7-0.6 5 0.8 12.5 13.6 28.5 22.9 46.3 26.8 1.8 0.4 3.1 2 3.1 3.9L111.2 339.2 111.2 339.2z" fill="#e56d90" data-fill-palette-color="accent"></path></g><g fill="#e56d90" data-fill-palette-color="accent"><path d="M127.2 290.6c-34.9 0-63.3-28.4-63.3-63.3 0-34.9 28.4-63.4 63.3-63.4 34.9 0 63.3 28.4 63.3 63.4C190.5 262.3 162.1 290.6 127.2 290.6zM127.2 172C96.8 172 72 196.9 72 227.4c0 30.5 24.8 55.3 55.3 55.3 30.5 0 55.3-24.8 55.3-55.3C182.5 196.9 157.7 172 127.2 172z" fill="#e56d90" data-fill-palette-color="accent"></path></g><g fill="#e56d90" data-fill-palette-color="accent"><path d="M127.2 264.2c-20.3 0-36.8-16.5-36.8-36.8 0-20.3 16.5-36.8 36.8-36.8 20.3 0 36.8 16.5 36.8 36.8C164 247.7 147.5 264.2 127.2 264.2zM127.2 198.6c-15.9 0-28.8 12.9-28.8 28.8 0 15.9 12.9 28.8 28.8 28.8 15.9 0 28.8-12.9 28.8-28.8C156 211.5 143.1 198.6 127.2 198.6z" fill="#e56d90" data-fill-palette-color="accent"></path></g><g fill="#e56d90" data-fill-palette-color="accent"><path d="M283.7 199.2c-13 0-23.6-10.6-23.6-23.6 0-13 10.6-23.6 23.6-23.6 13 0 23.5 10.6 23.5 23.6C307.2 188.6 296.7 199.2 283.7 199.2zM283.7 160.1c-8.6 0-15.6 7-15.6 15.6 0 8.6 7 15.6 15.6 15.6 8.5 0 15.5-7 15.5-15.6C299.2 167 292.3 160.1 283.7 160.1z" fill="#e56d90" data-fill-palette-color="accent"></path></g><g fill="#e56d90" data-fill-palette-color="accent"><path d="M386.3 211.5c-13 0-23.5-10.6-23.5-23.6 0-13 10.5-23.6 23.5-23.6 13 0 23.6 10.6 23.6 23.6C409.8 200.9 399.3 211.5 386.3 211.5zM386.3 172.3c-8.5 0-15.5 7-15.5 15.6 0 8.6 7 15.6 15.5 15.6 8.6 0 15.6-7 15.6-15.6C401.8 179.3 394.9 172.3 386.3 172.3z" fill="#e56d90" data-fill-palette-color="accent"></path></g><g fill="#e56d90" data-fill-palette-color="accent"><path d="M303.5 396.7c-13 0-23.6-10.5-23.6-23.5 0-13 10.6-23.6 23.6-23.6 13 0 23.5 10.6 23.5 23.6C327 386.1 316.5 396.7 303.5 396.7zM303.5 357.6c-8.6 0-15.6 7-15.6 15.6 0 8.6 7 15.5 15.6 15.5 8.5 0 15.5-7 15.5-15.5C319 364.6 312.1 357.6 303.5 357.6z" fill="#e56d90" data-fill-palette-color="accent"></path></g><g fill="#e56d90" data-fill-palette-color="accent"><path d="M242.7 425.6c-13 0-23.5-10.6-23.5-23.6 0-13 10.5-23.5 23.5-23.5 13 0 23.6 10.5 23.6 23.5C266.3 415 255.7 425.6 242.7 425.6zM242.7 386.5c-8.5 0-15.5 7-15.5 15.5 0 8.6 7 15.6 15.5 15.6 8.6 0 15.6-7 15.6-15.6C258.3 393.5 251.3 386.5 242.7 386.5z" fill="#e56d90" data-fill-palette-color="accent"></path></g></g></g></svg></g></svg></g></svg></g></svg></g></svg></g><g><path d="M245.816 0c68.262 0 123.6 55.338 123.6 123.6 0 68.262-55.338 123.6-123.6 123.6-56.603 0-104.319-38.048-118.968-89.964l1.949 0c14.595 50.867 61.46 88.089 117.019 88.089 67.227 0 121.725-54.498 121.725-121.725 0-67.227-54.498-121.725-121.725-121.725-55.559 0-102.424 37.222-117.019 88.089l-1.949 0c14.649-51.916 62.365-89.964 118.968-89.964z" fill="#e56d90" stroke="transparent" data-fill-palette-color="tertiary"></path></g></svg></g><defs></defs></svg><rect width="395.52" height="247.2" fill="none" stroke="none" visibility="hidden"></rect></g></svg></g></svg>